<?xml version="1.0" encoding="utf-8"?>
<!-- Generator: Adobe Illustrator 21.0.2, SVG Export Plug-In . SVG Version: 6.00 Build 0)  -->
<svg version="1.1" id="Capa_1" xmlns="http://www.w3.org/2000/svg" xmlns:xlink="http://www.w3.org/1999/xlink" x="0px" y="0px"
	 viewBox="0 0 320 79.3" style="enable-background:new 0 0 320 79.3;" xml:space="preserve">
<style type="text/css">
	.st0{fill:#FF991C;}
	.st1{fill:#FF7121;}
	.st2{fill:#FFB517;}
	.st3{fill:#FFCA0E;}
	.st4{fill:#585757;}
</style>
<path class="st0" d="M40.9,9.7c0-1.4-1.2-2.6-2.6-2.5c-1.4,0-2.6,1.2-2.5,2.6c0,1.4,1.2,2.6,2.6,2.5C39.8,12.2,41,11.1,40.9,9.7z
	 M40.9,67.1c-1.4,0-2.5,1.2-2.5,2.6s1.2,2.6,2.6,2.5c1.4,0,2.6-1.2,2.5-2.6S42.3,67,40.9,67.1z M28,14.8c1.3-0.5,1.9-2.1,1.4-3.4
	s-2-1.9-3.3-1.4c-1.3,0.6-1.9,2.1-1.4,3.4S26.7,15.3,28,14.8z M51.3,64.5c-1.3,0.5-1.9,2.1-1.4,3.3c0.5,1.3,2,1.9,3.3,1.4
	c1.3-0.6,1.9-2.1,1.4-3.4C54.1,64.6,52.6,63.9,51.3,64.5z M19.4,21.1c1-1,1-2.6,0-3.6s-2.6-1-3.6,0s-1,2.6,0,3.6
	S18.4,22.1,19.4,21.1z M59.9,58.2c-1,1-1,2.6,0,3.6s2.6,1,3.6,0s1-2.6,0-3.6C62.5,57.1,60.9,57.1,59.9,58.2z M10.5,31.7
	c1.3,0.5,2.8-0.1,3.3-1.4s-0.1-2.8-1.4-3.3s-2.8,0.1-3.3,1.4S9.2,31.2,10.5,31.7z M68.8,47.6c-1.3-0.5-2.8,0.1-3.3,1.4
	c-0.5,1.3,0.1,2.8,1.4,3.3s2.8-0.1,3.3-1.4C70.7,49.6,70.1,48.1,68.8,47.6z M12.2,40.9c0-1.4-1.2-2.5-2.6-2.5S7,39.6,7.1,41
	c0,1.4,1.2,2.6,2.6,2.5S12.2,42.3,12.2,40.9z M69.6,35.8c-1.4,0-2.6,1.2-2.5,2.6c0,1.4,1.2,2.5,2.6,2.5s2.6-1.2,2.5-2.6
	C72.2,37,71,35.8,69.6,35.8z M11.4,49.9c-1.3,0.6-1.9,2.1-1.4,3.4c0.6,1.3,2.1,1.9,3.4,1.4s1.9-2.1,1.4-3.4
	C14.2,50,12.7,49.4,11.4,49.9z M67.8,29.4c1.3-0.6,1.9-2.1,1.4-3.4c-0.6-1.3-2.1-1.9-3.4-1.4s-1.9,2.1-1.4,3.4
	C65,29.3,66.5,29.9,67.8,29.4z M17.5,59.9c-1,1-1,2.6,0,3.6s2.6,1,3.6,0s1-2.6,0-3.6S18.5,58.9,17.5,59.9z M61.8,19.4
	c1-1,1-2.6,0-3.6s-2.6-1-3.6,0s-1,2.6,0,3.6S60.8,20.4,61.8,19.4z M30.3,65.4c-1.3-0.5-2.8,0.1-3.3,1.4s0.1,2.8,1.4,3.3
	s2.8-0.1,3.3-1.4C32.2,67.5,31.6,66,30.3,65.4z M52.3,12.4c0.5-1.3-0.1-2.8-1.4-3.3c-1.3-0.5-2.8,0.1-3.3,1.4s0.1,2.8,1.4,3.3
	C50.3,14.4,51.8,13.7,52.3,12.4z"/>
<path class="st1" d="M35.4,19.7c1.5-0.3,2.6-1.7,2.3-3.3c-0.3-1.5-1.7-2.6-3.3-2.3s-2.6,1.7-2.3,3.3C32.4,18.9,33.9,20,35.4,19.7z
	 M43.8,59.6c-1.5,0.3-2.6,1.7-2.3,3.3c0.3,1.5,1.7,2.6,3.3,2.3s2.6-1.7,2.3-3.3S45.4,59.3,43.8,59.6z M28.1,22.8
	c1.3-0.8,1.7-2.6,0.9-3.9c-0.8-1.3-2.6-1.7-3.9-0.9c-1.3,0.8-1.7,2.6-0.9,3.9C25,23.3,26.8,23.7,28.1,22.8z M51.1,56.4
	c-1.3,0.8-1.7,2.6-0.9,3.9c0.8,1.3,2.6,1.7,3.9,0.9c1.3-0.8,1.7-2.6,0.9-3.9S52.5,55.6,51.1,56.4z M18.6,29.2c1.3,0.9,3.1,0.6,4-0.7
	c0.9-1.3,0.6-3.1-0.7-4c-1.3-0.9-3.1-0.6-4,0.7C17,26.5,17.3,28.3,18.6,29.2z M60.7,50.1c-1.3-0.9-3.1-0.6-4,0.7s-0.6,3.1,0.7,4
	s3.1,0.6,4-0.7C62.3,52.8,61.9,51,60.7,50.1z M16.2,38c1.5,0.4,3.1-0.6,3.4-2.1c0.4-1.5-0.6-3.1-2.1-3.4c-1.5-0.4-3.1,0.6-3.4,2.1
	C13.7,36.2,14.7,37.7,16.2,38z M63.1,41.2c-1.5-0.4-3.1,0.6-3.4,2.1c-0.4,1.5,0.6,3.1,2.1,3.4c1.5,0.4,3.1-0.6,3.4-2.1
	C65.6,43.1,64.6,41.6,63.1,41.2z M19.7,43.8c-0.3-1.5-1.7-2.6-3.3-2.3c-1.5,0.3-2.6,1.7-2.3,3.3s1.7,2.6,3.3,2.3
	C18.9,46.9,20,45.4,19.7,43.8z M59.6,35.4c0.3,1.5,1.7,2.6,3.3,2.3c1.5-0.3,2.6-1.7,2.3-3.3s-1.7-2.6-3.3-2.3
	C60.3,32.4,59.3,33.9,59.6,35.4z M18.9,50.2c-1.3,0.8-1.7,2.6-0.9,3.9c0.8,1.3,2.6,1.7,3.9,0.9s1.7-2.6,0.9-3.9
	C22,49.8,20.3,49.4,18.9,50.2z M60.4,29c1.3-0.8,1.7-2.6,0.9-3.9s-2.6-1.7-3.9-0.9c-1.3,0.8-1.7,2.6-0.9,3.9
	C57.3,29.5,59,29.9,60.4,29z M28.5,56.7c-1.3-0.9-3.1-0.6-4,0.7s-0.6,3.1,0.7,4c1.3,0.9,3.1,0.6,4-0.7S29.8,57.6,28.5,56.7z
	 M50.7,22.6c1.3,0.9,3.1,0.6,4-0.7c0.9-1.3,0.6-3.1-0.7-4s-3.1-0.6-4,0.7C49.2,19.9,49.5,21.7,50.7,22.6z M35.9,59.6
	c-1.5-0.4-3.1,0.6-3.4,2.1c-0.4,1.5,0.6,3.1,2.1,3.4c1.5,0.4,3.1-0.6,3.4-2.1C38.4,61.5,37.4,60,35.9,59.6z M43.4,19.6
	c1.5,0.4,3.1-0.6,3.4-2.1c0.4-1.5-0.6-3.1-2.1-3.4c-1.5-0.4-3.1,0.6-3.4,2.1C40.9,17.7,41.8,19.3,43.4,19.6z"/>
<path class="st2" d="M44.3,3.2c-1.1-0.1-2.1,0.8-2.2,2c0,1.1,0.8,2.1,2,2.2c1.1,0.1,2.1-0.8,2.2-2C46.3,4.2,45.4,3.3,44.3,3.2z
	 M35.2,71.9c-1.1-0.1-2.1,0.8-2.2,2c-0.1,1.1,0.8,2.1,2,2.2c1.1,0.1,2.1-0.8,2.2-2C37.2,73,36.3,72,35.2,71.9z M30,4.2
	c-1.1,0.4-1.6,1.6-1.2,2.7s1.6,1.6,2.6,1.2c1.1-0.4,1.6-1.6,1.2-2.6C32.3,4.4,31.1,3.8,30,4.2z M47.9,71.2c-1.1,0.4-1.6,1.6-1.2,2.6
	c0.4,1.1,1.6,1.6,2.7,1.2c1.1-0.4,1.6-1.6,1.2-2.7C50.1,71.4,48.9,70.8,47.9,71.2z M20.1,10.7c-0.8-0.8-2.1-0.9-2.9-0.1
	c-0.8,0.8-0.9,2.1-0.1,2.9c0.8,0.8,2.1,0.9,2.9,0.1C20.8,12.9,20.9,11.6,20.1,10.7z M59.3,65.6c-0.8,0.8-0.9,2.1-0.1,2.9
	c0.8,0.8,2.1,0.9,2.9,0.1c0.8-0.8,0.9-2.1,0.1-2.9C61.5,64.9,60.2,64.9,59.3,65.6z M11.5,23.2c0.5-1,0-2.3-1-2.8s-2.3,0-2.7,1
	c-0.5,1,0,2.3,1,2.8C9.8,24.6,11,24.2,11.5,23.2z M70.5,55.1c-1-0.5-2.3,0-2.7,1c-0.5,1,0,2.3,1,2.7c1,0.5,2.3,0,2.7-1
	C72,56.8,71.6,55.6,70.5,55.1z M7.3,35.2c0.1-1.1-0.8-2.1-2-2.2c-1.1,0-2.1,0.8-2.2,2c-0.1,1.1,0.8,2.1,2,2.2
	C6.3,37.2,7.3,36.3,7.3,35.2z M74.1,42.1c-1.1-0.1-2.1,0.8-2.2,2c-0.1,1.1,0.8,2.1,2,2.2c1.1,0.1,2.1-0.8,2.2-2
	C76.1,43.1,75.2,42.2,74.1,42.1z M5.4,46.6c-1.1,0.4-1.6,1.6-1.2,2.7c0.4,1.1,1.6,1.6,2.7,1.2c1.1-0.4,1.6-1.6,1.2-2.7
	C7.7,46.8,6.5,46.2,5.4,46.6z M73.8,32.6c1.1-0.4,1.6-1.6,1.2-2.6c-0.4-1.1-1.6-1.6-2.7-1.2s-1.6,1.6-1.2,2.6
	C71.6,32.5,72.8,33,73.8,32.6z M10.7,59.2c-0.8,0.8-0.9,2.1-0.1,2.9c0.8,0.8,2.1,0.9,2.9,0.1c0.8-0.8,0.9-2.1,0.1-2.9
	C12.9,58.5,11.6,58.4,10.7,59.2z M68.7,17.2c-0.8-0.8-2.1-0.9-2.9-0.1s-0.9,2.1-0.1,2.9s2.1,0.9,2.9,0.1
	C69.4,19.3,69.5,18,68.7,17.2z M23.2,67.8c-1-0.5-2.3,0-2.7,1c-0.5,1,0,2.3,1,2.7c1,0.5,2.3,0,2.8-1C24.6,69.5,24.2,68.3,23.2,67.8z
	 M57.9,7.8c-1-0.5-2.3,0-2.7,1c-0.5,1,0,2.3,1,2.7c1,0.5,2.3,0,2.7-1C59.4,9.5,58.9,8.2,57.9,7.8z"/>
<path class="st3" d="M50.6,1.4c-0.1,0-0.2,0-0.3,0c-0.9,0.1-1.6,0.8-1.7,1.7c0,0.1,0,0.2,0,0.3c0.1,0.9,0.8,1.6,1.7,1.7
	c0.1,0,0.2,0,0.3,0c0.9-0.1,1.6-0.8,1.7-1.7c0-0.1,0-0.2,0-0.3C52.2,2.2,51.5,1.4,50.6,1.4z M28.9,74.3c-0.1,0-0.2,0-0.3,0
	c-0.9,0.1-1.6,0.8-1.7,1.7c0,0.1,0,0.2,0,0.3c0.1,0.9,0.8,1.6,1.7,1.7c0.1,0,0.2,0,0.3,0c0.9-0.1,1.6-0.8,1.7-1.7c0-0.1,0-0.2,0-0.3
	C30.5,75.1,29.8,74.4,28.9,74.3z M37.3,1c-0.4-0.8-1.3-1.2-2.2-0.9c-0.1,0-0.2,0.1-0.2,0.1c-0.8,0.4-1.2,1.3-0.9,2.2
	c0,0.1,0.1,0.2,0.1,0.2c0.4,0.8,1.3,1.2,2.2,0.9c0.1,0,0.2-0.1,0.2-0.1c0.8-0.4,1.2-1.3,0.9-2.2C37.4,1.1,37.3,1.1,37.3,1z
	 M45.2,76.7c-0.4-0.8-1.3-1.2-2.2-0.9c-0.1,0-0.2,0.1-0.2,0.1c-0.8,0.4-1.2,1.3-0.9,2.2c0,0.1,0.1,0.2,0.1,0.2
	c0.4,0.8,1.3,1.2,2.2,0.9c0.1,0,0.2-0.1,0.2-0.1c0.8-0.4,1.2-1.3,0.9-2.2C45.3,76.8,45.2,76.7,45.2,76.7z M22.7,4.8
	c-0.7-0.6-1.7-0.6-2.3,0C20.3,4.9,20.2,5,20.1,5c-0.6,0.7-0.6,1.7,0,2.3c0.1,0.1,0.1,0.1,0.2,0.2c0.7,0.6,1.7,0.6,2.3,0
	c0.1-0.1,0.1-0.1,0.2-0.2c0.6-0.7,0.6-1.7,0-2.4C22.8,4.9,22.7,4.9,22.7,4.8z M58.9,71.7c-0.7-0.6-1.7-0.6-2.3,0
	c-0.1,0.1-0.1,0.1-0.2,0.2c-0.6,0.7-0.6,1.7,0,2.4c0.1,0.1,0.1,0.1,0.2,0.2c0.7,0.6,1.7,0.6,2.4,0c0.1-0.1,0.1-0.1,0.2-0.2
	c0.6-0.7,0.6-1.7,0-2.4C59.1,71.8,59,71.8,58.9,71.7z M10.9,14.1c-0.1,0-0.2-0.1-0.2-0.1c-0.8-0.3-1.8,0.1-2.2,0.9
	c0,0.1-0.1,0.2-0.1,0.2c-0.3,0.8,0.1,1.8,0.9,2.2c0.1,0,0.2,0.1,0.2,0.1c0.8,0.3,1.8-0.1,2.2-0.9c0-0.1,0.1-0.2,0.1-0.2
	C12.1,15.4,11.7,14.5,10.9,14.1z M70,62c-0.1,0-0.2-0.1-0.2-0.1C69,61.6,68,62,67.6,62.8c0,0.1-0.1,0.2-0.1,0.2
	c-0.3,0.8,0.1,1.8,0.9,2.2c0.1,0,0.2,0.1,0.2,0.1c0.8,0.3,1.8-0.1,2.2-0.9c0-0.1,0.1-0.2,0.1-0.2C71.2,63.3,70.8,62.4,70,62z
	 M3,30.6c0.1,0,0.2,0,0.3,0c0.9-0.1,1.6-0.8,1.7-1.7c0-0.1,0-0.2,0-0.3c-0.1-0.9-0.8-1.6-1.7-1.7c-0.1,0-0.2,0-0.3,0
	c-0.9,0.1-1.6,0.8-1.7,1.7c0,0.1,0,0.2,0,0.3C1.4,29.8,2.1,30.5,3,30.6z M76.2,48.7c-0.1,0-0.2,0-0.3,0c-0.9,0.1-1.6,0.8-1.7,1.7
	c0,0.1,0,0.2,0,0.3c0.1,0.9,0.8,1.6,1.7,1.7c0.1,0,0.2,0,0.3,0c0.9-0.1,1.6-0.8,1.7-1.7c0-0.1,0-0.2,0-0.3
	C77.8,49.4,77.1,48.7,76.2,48.7z M3.4,42.8C3,42,2.1,41.6,1.2,41.9C1.1,41.9,1.1,42,1,42c-0.8,0.4-1.2,1.3-0.9,2.2
	c0,0.1,0.1,0.2,0.1,0.2c0.4,0.8,1.3,1.2,2.2,0.9c0.1,0,0.2-0.1,0.2-0.1c0.8-0.4,1.2-1.3,0.9-2.2C3.5,42.9,3.4,42.9,3.4,42.8z
	 M79.2,35.1c0-0.1-0.1-0.2-0.1-0.2c-0.4-0.8-1.3-1.2-2.2-0.9c-0.1,0-0.2,0.1-0.2,0.1c-0.8,0.4-1.2,1.3-0.9,2.2
	c0,0.1,0.1,0.2,0.1,0.2c0.4,0.8,1.3,1.2,2.2,0.9c0.1,0,0.2-0.1,0.2-0.1C79.1,36.9,79.5,36,79.2,35.1z M7.4,56.4
	c-0.7-0.6-1.7-0.6-2.4,0c-0.1,0.1-0.1,0.1-0.2,0.2c-0.6,0.7-0.6,1.7,0,2.3C4.9,59,5,59.1,5,59.1c0.7,0.6,1.7,0.6,2.3,0
	C7.4,59,7.4,59,7.5,58.9c0.6-0.7,0.6-1.7,0-2.3C7.5,56.5,7.4,56.5,7.4,56.4z M74.4,20.3c-0.1-0.1-0.1-0.1-0.2-0.2
	c-0.7-0.6-1.7-0.6-2.3,0c-0.1,0.1-0.1,0.1-0.2,0.2c-0.6,0.7-0.6,1.7,0,2.3c0.1,0.1,0.1,0.1,0.2,0.2c0.7,0.6,1.7,0.6,2.4,0
	c0.1-0.1,0.1-0.1,0.2-0.2C75,22,75,21,74.4,20.3z M16.5,67.6c-0.1,0-0.2-0.1-0.2-0.1c-0.8-0.3-1.8,0.1-2.2,0.9
	c0,0.1-0.1,0.2-0.1,0.2c-0.3,0.8,0.1,1.8,0.9,2.2c0.1,0,0.2,0.1,0.2,0.1c0.8,0.3,1.8-0.1,2.2-0.9c0-0.1,0.1-0.2,0.1-0.3
	C17.7,68.9,17.3,68,16.5,67.6z M64.4,8.5c-0.1,0-0.2-0.1-0.2-0.1c-0.8-0.3-1.8,0.1-2.2,0.9c0,0.1-0.1,0.2-0.1,0.2
	c-0.3,0.8,0.1,1.8,0.9,2.2c0.1,0,0.2,0.1,0.2,0.1c0.8,0.3,1.8-0.1,2.2-0.9c0-0.1,0.1-0.2,0.1-0.2C65.6,9.8,65.2,8.9,64.4,8.5z"/>
<path class="st4" d="M141.7,54.7c-0.7,0.2-1.3,0.3-1.8,0.3c-1,0-1.2-0.6-1.2-1.7v-5.8h-2.9v6.2c0,1.1,0.1,2,0.5,2.6
	c0.4,0.6,1.1,1,2.2,1c0.8,0,1.9-0.3,3.4-1.1v0.9h2.7v-9.6h-2.9V54.7z M109.9,43.7L107,54.5l-3-10.8h-3.8l-0.8,13.4h2.5l0.3-11l3,11
	h3.1l3-11l0.2,11h2.8l-0.5-13.4C113.8,43.7,109.9,43.7,109.9,43.7z M132.7,55.3c-0.5,0-0.9-0.1-1-0.4c-0.2-0.3-0.2-0.4-0.2-1.9v-3.5
	h2.5v-1.9h-2.5v-2.7h-2.9v2.7l-1.6,0.3v1.6h1.6v3.8c0,1.7,0.1,2.3,0.4,2.9c0.4,0.8,1.3,1.2,2.5,1.2c0.8,0,1.8-0.2,3-0.5l-0.3-1.7
	C133.4,55.2,133.1,55.3,132.7,55.3z M122.6,54.7c-0.7,0.2-1.3,0.3-1.8,0.3c-1,0-1.2-0.6-1.2-1.7v-5.8h-2.9v6.2c0,1.1,0.1,2,0.5,2.6
	c0.4,0.6,1.1,1,2.2,1c0.8,0,1.9-0.3,3.4-1.1v0.9h2.7v-9.6h-2.9V54.7z M124.1,45.2l-0.7-2.1l-5.1,1.9l0.4,1.2L124.1,45.2z
	 M165.8,43.7H156V45h4.1v12.2h1.6V45h4.1V43.7z M181.9,48.5v-0.8h-1.4v9.5h1.5v-7.6c0.9-0.4,1.6-0.6,2.5-0.6h0.5v-1.4h-0.5
	C183.5,47.6,182.8,47.8,181.9,48.5z M175.9,48.5v-0.8h-1.4v9.5h1.5v-7.6c0.9-0.4,1.6-0.6,2.5-0.6h0.5v-1.4h-0.5
	C177.5,47.6,176.8,47.8,175.9,48.5z M151.6,47.3c-1.1,0-2.7,0.3-4.4,0.8l0.3,1.7c1.3-0.2,2-0.3,2.7-0.3c1.4,0,1.6,0.4,1.6,1.6v0.2
	c-2,0-3.8,0.1-4.6,1c-0.5,0.5-0.7,1.2-0.7,2.1c0,1.9,1,3,2.5,3c0.8,0,1.7-0.4,2.9-1.1v0.9h2.6v-5.5c0-1.8-0.1-2.5-0.5-3.2
	C153.7,47.7,152.9,47.3,151.6,47.3z M151.9,55.1c0,0-0.8,0.3-1.4,0.3c-0.7,0-1.1-0.4-1.1-1.3c0-1,0.7-1.4,2.5-1.5V55.1z M189.7,47.5
	c-1,0-2.1,0.2-3.6,0.6l0.2,1c1.2-0.2,2.1-0.3,2.8-0.3c1.8,0,1.8,0.7,1.8,2.3v0.4c-1.8,0-2.8,0.1-3.5,0.2c-1.1,0.3-1.8,1.2-1.8,2.7
	c0,2,1.2,3,2.4,3c0.9,0,1.7-0.4,2.9-1v0.8h1.4v-6.1c0-1.7-0.1-2.3-0.5-2.8C191.4,47.7,190.7,47.5,189.7,47.5z M190.9,55.4
	c0,0-1.6,0.7-2.5,0.7c-0.8,0-1.3-0.5-1.3-1.6c0-1.4,0.7-1.8,3.8-2V55.4z M168.6,47.5c-2.5,0-4,2-4,5.3c0,2.8,1.4,4.6,3.7,4.6
	c1.1,0,1.9-0.2,3.9-1.1l-0.3-0.9c-1.6,0.5-2.3,0.7-3.3,0.7c-1.6,0-2.5-1-2.5-3.1v-0.3h6.1V52C172.3,49,171,47.5,168.6,47.5z
	 M166.3,51.6c0.2-1.9,1.1-2.9,2.5-2.9c1.3,0,1.9,0.8,1.9,2.8L166.3,51.6z M215.6,48.3c-0.3-0.6-1-0.8-2.1-0.8c-1,0-2.1,0.2-3.6,0.6
	l0.2,1c1.2-0.2,2.1-0.3,2.8-0.3c1.8,0,1.8,0.7,1.8,2.3v0.4c-1.8,0-2.8,0.1-3.5,0.2c-1.1,0.3-1.8,1.2-1.8,2.7c0,2,1.2,3,2.4,3
	c0.9,0,1.7-0.4,2.9-1v0.8h1.4v-6.1C216.1,49.4,216,48.8,215.6,48.3z M214.7,55.4c0,0-1.6,0.7-2.5,0.7c-0.8,0-1.3-0.5-1.3-1.6
	c0-1.4,0.7-1.8,3.8-2V55.4z M203.3,50.1c0-0.9,0.6-1.4,1.7-1.4c0.5,0,1.2,0.1,2.1,0.3l0.3-1c-1-0.3-1.8-0.5-2.5-0.5
	c-1.9,0-3.1,1-3.1,2.8c0,1.7,1.4,2.2,3,2.8c1.3,0.4,1.6,0.7,1.6,1.5c0,1-0.8,1.6-2.2,1.6c-0.6,0-1.3-0.1-2.2-0.3l-0.3,1.1
	c1.1,0.3,1.9,0.4,2.9,0.4c2.1,0,3.4-1.1,3.4-3C207.9,51,203.3,52.2,203.3,50.1z M195.9,50.1c0-0.9,0.6-1.4,1.7-1.4
	c0.5,0,1.2,0.1,2.1,0.3l0.3-1c-1-0.3-1.8-0.5-2.5-0.5c-1.9,0-3.1,1-3.1,2.8c0,1.7,1.4,2.2,3,2.8c1.3,0.4,1.6,0.7,1.6,1.5
	c0,1-0.8,1.6-2.2,1.6c-0.6,0-1.3-0.1-2.2-0.3l-0.3,1.1c1.1,0.3,1.9,0.4,2.9,0.4c2.1,0,3.4-1.1,3.4-3C200.5,51,195.9,52.2,195.9,50.1
	z"/>
<g>
	<path class="st1" d="M132.6,24.2c-1.7,0-2.9,0.9-4,1.9h-0.1l-0.2-1.6h-2.4v12.3h2.9v-8.6c1-1,1.7-1.5,2.8-1.5
		c1.4,0,1.9,0.8,1.9,2.8v7.3h2.9v-7.7C136.4,26,135.3,24.2,132.6,24.2z"/>
	<path class="st1" d="M119.3,32.9c-0.9,1.2-1.6,1.7-2.7,1.7c-1.3,0-1.9-0.8-1.9-2.8v-7.3h-2.9v7.7c0,3.1,1.1,4.9,3.8,4.9
		c1.7,0,2.9-0.8,4-2.1l0.3,1.8h2.3V24.5h-2.9V32.9z"/>
	<polygon class="st1" points="194.2,18.6 192.2,16.7 188.5,21 189.9,22.4 	"/>
	<rect x="178.5" y="24.5" class="st1" width="2.9" height="12.3"/>
	<path class="st1" d="M179.9,19.2c-1.1,0-1.8,0.7-1.8,1.6c0,0.9,0.8,1.6,1.8,1.6s1.8-0.7,1.8-1.6C181.7,19.8,181,19.2,179.9,19.2z"
		/>
	<polygon class="st1" points="310.9,18.6 308.9,16.7 305.2,21 306.6,22.4 	"/>
	<polygon class="st1" points="100,36.9 102.9,36.9 102.9,30 108.8,30 108.8,27.6 102.9,27.6 102.9,23 109.9,23 109.9,20.6 100,20.6 
			"/>
	<path class="st1" d="M210.1,28.7c-0.5,1.8-0.9,3.4-1.4,5.3h-0.1c-0.5-1.9-0.9-3.5-1.4-5.3l-2.3-8.2h-3.1l5.1,16.3h3.4l5.1-16.3h-3
		L210.1,28.7z"/>
	<path class="st1" d="M147.5,23.5l0.1,2c-1-0.8-1.8-1.3-3.2-1.3c-2.7,0-5.2,2.4-5.2,6.4c0,4.1,1.9,6.5,5,6.5c1.3,0,2.6-0.7,3.5-1.6
		h0.1l0.2,1.3h2.4V19.1h-2.9V23.5z M147.5,33.3c-0.8,0.9-1.6,1.4-2.6,1.4c-1.8,0-2.8-1.4-2.8-4.1c0-2.5,1.3-4,2.9-4
		c0.8,0,1.6,0.3,2.5,1V33.3z"/>
	<path class="st1" d="M172.3,34.7c-1.9,0-3.3-1.6-3.3-4.1s1.4-4.1,3.3-4.1c0.8,0,1.4,0.3,2,0.9l1.4-1.9c-0.9-0.8-2-1.4-3.6-1.4
		c-3.3,0-6.1,2.3-6.1,6.4c0.1,4.2,2.7,6.6,6,6.6c1.4,0,2.8-0.5,4-1.5l-1.2-1.9C174.1,34.3,173.2,34.7,172.3,34.7z"/>
	<path class="st1" d="M158.9,24.2c-1.9,0-3.7,0.7-5,1.6l1,1.9c1.1-0.6,2.2-1.2,3.4-1.2c1.7,0,2.2,1.1,2.2,2.4c-5,0.6-7.1,2-7.1,4.6
		c0,2.1,1.5,3.6,3.6,3.6c1.4,0,2.7-0.7,3.8-1.6h0.1l0.2,1.3h2.4v-7.3C163.5,26.1,162,24.2,158.9,24.2z M160.6,33.4
		c-0.9,0.9-1.7,1.3-2.7,1.3s-1.8-0.5-1.8-1.6c0-1.1,1.1-1.9,4.5-2.4V33.4z"/>
	<path class="st1" d="M232.8,34.7c-0.3,0-0.6-0.2-0.6-1V19.1h-2.9v14.5c0,2.1,0.8,3.4,2.8,3.4c0.7,0,1.2-0.1,1.5-0.2l-0.4-2.1
		C233,34.7,232.9,34.7,232.8,34.7z"/>
	<path class="st1" d="M272.2,26.7l-0.3-2.2h-2.4v12.3h2.9v-7.5c0.7-1.8,1.9-2.5,2.9-2.5c0.5,0,0.8,0.1,1.3,0.2l0.5-2.5
		c-0.4-0.2-0.8-0.2-1.4-0.2C274.4,24.2,273.1,25.1,272.2,26.7z"/>
	<path class="st1" d="M249.2,24.2c-1.3,0-2.7,0.7-3.7,1.6h-0.1l-0.2-1.3h-2.4v17.1h2.9v-3.8l-0.1-2c1,0.9,2.1,1.3,3.1,1.3
		c2.7,0,5.2-2.4,5.2-6.6C254.1,26.7,252.3,24.2,249.2,24.2z M248.2,34.7c-0.7,0-1.6-0.3-2.5-1V28c1-0.9,1.8-1.4,2.7-1.4
		c1.8,0,2.6,1.4,2.6,3.9C251.1,33.3,249.8,34.7,248.2,34.7z"/>
	<path class="st1" d="M239.6,34.7c-0.3,0-0.6-0.2-0.6-1V19.1h-2.9v14.5c0,2.1,0.7,3.4,2.8,3.4c0.7,0,1.2-0.1,1.5-0.2l-0.4-2.1
		C239.8,34.7,239.7,34.7,239.6,34.7z"/>
	<path class="st1" d="M261.5,24.2c-1.9,0-3.7,0.7-5,1.6l1,1.9c1.1-0.6,2.2-1.2,3.4-1.2c1.7,0,2.2,1.1,2.2,2.4
		c-5,0.5-7.2,1.9-7.2,4.5c0,2.1,1.5,3.6,3.6,3.6c1.4,0,2.7-0.7,3.8-1.6h0.1l0.2,1.3h2.4v-7.3C266.1,26.1,264.6,24.2,261.5,24.2z
		 M260.5,34.8c-1,0-1.8-0.5-1.8-1.6c0-1.2,1.1-2.1,4.4-2.5v2.8h0.1C262.3,34.4,261.5,34.8,260.5,34.8z"/>
	<path class="st1" d="M283.1,24.2c-1.9,0-3.7,0.7-5,1.6l1,1.9c1.1-0.6,2.2-1.2,3.4-1.2c1.7,0,2.2,1.1,2.2,2.4
		c-5,0.5-7.2,1.9-7.2,4.5c0,2.1,1.5,3.6,3.6,3.6c1.4,0,2.7-0.7,3.8-1.6h0.1l0.2,1.3h2.4v-7.3C287.7,26.1,286.2,24.2,283.1,24.2z
		 M282.1,34.8c-1,0-1.8-0.5-1.8-1.6c0-1.2,1.1-2.1,4.4-2.5v2.8h0.1C283.9,34.4,283.1,34.8,282.1,34.8z"/>
	<path class="st1" d="M316.5,29.6c-1.3-0.5-2.5-0.9-2.5-1.8c0-0.8,0.6-1.3,1.8-1.3c1,0,1.8,0.4,2.7,1l1.3-1.7
		c-1-0.8-2.4-1.5-4.1-1.5c-2.7,0-4.5,1.5-4.5,3.7c0,2,1.8,3,3.4,3.6c1.3,0.5,2.6,0.9,2.6,2c0,0.8-0.6,1.5-1.9,1.5
		c-1.2,0-2.3-0.5-3.4-1.4l-1.3,1.8c1.2,1,3,1.7,4.6,1.7c3.1,0,4.8-1.7,4.8-3.8C320,31,318.1,30.2,316.5,29.6z"/>
	<rect x="305.2" y="24.5" class="st1" width="2.9" height="12.3"/>
	<path class="st1" d="M298.7,23.6l0.1,2c-0.9-0.8-1.8-1.3-3.2-1.3c-2.7,0-5.2,2.4-5.2,6.4s2,6.4,5,6.4c1.3,0,2.6-0.7,3.5-1.6h0.1
		l0.2,1.3h2.4V19.1h-2.9V23.6z M296.1,34.7c-1.8,0-2.8-1.4-2.8-4.1c0-2.6,1.3-4,2.8-4c0.8,0,1.6,0.3,2.5,1v5.7h0.1
		C297.9,34.2,297.1,34.7,296.1,34.7z"/>
	<path class="st1" d="M221.3,24.2c-1.9,0-3.7,0.7-5,1.6l1,1.9c1.1-0.6,2.2-1.2,3.4-1.2c1.7,0,2.2,1.1,2.2,2.4
		c-5,0.5-7.2,1.9-7.2,4.5c0,2.1,1.5,3.6,3.6,3.6c1.4,0,2.7-0.7,3.8-1.6h0.1l0.2,1.3h2.4v-7.3C225.9,26.1,224.3,24.2,221.3,24.2z
		 M220.3,34.8c-1,0-1.8-0.5-1.8-1.6c0-1.2,1.1-2.1,4.4-2.5v2.8h0.1C222.1,34.4,221.3,34.8,220.3,34.8z"/>
	<path class="st1" d="M190,24.2c-3,0-5.8,2.3-5.8,6.4c0,4.1,2.8,6.4,5.8,6.4c3.1,0,5.8-2.3,5.8-6.4C195.9,26.6,193.1,24.2,190,24.2z
		 M190,34.7c-1.8,0-2.9-1.6-2.9-4.1s1.1-4.1,2.9-4.1s2.9,1.6,2.9,4.1S191.8,34.7,190,34.7z"/>
</g>
</svg>
